<?xml version="1.0" standalone="no"?>
<!DOCTYPE svg PUBLIC "-//W3C//DTD SVG 20010904//EN"
 "http://www.w3.org/TR/2001/REC-SVG-20010904/DTD/svg10.dtd">
<svg version="1.0" xmlns="http://www.w3.org/2000/svg"
 width="446.000000pt" height="446.000000pt" viewBox="0 0 446.000000 446.000000"
 preserveAspectRatio="xMidYMid meet">
<metadata>
Created by potrace 1.11, written by Peter Selinger 2001-2013
</metadata>
<g transform="translate(0.000000,446.000000) scale(0.100000,-0.100000)"
fill="#000000" stroke="none">
<path d="M2069 4446 c-2 -2 -39 -7 -82 -11 -77 -6 -107 -10 -157 -20 -14 -3
-36 -7 -49 -10 -126 -24 -351 -98 -466 -153 -174 -84 -145 -68 -315 -178 -165
-108 -356 -277 -472 -419 -58 -71 -126 -163 -152 -205 -15 -25 -41 -67 -58
-95 -136 -222 -247 -536 -283 -800 -2 -22 -9 -69 -14 -104 -11 -83 -11 -345 0
-436 11 -101 16 -137 23 -165 3 -14 8 -41 10 -60 12 -81 64 -256 116 -385 132
-331 339 -619 620 -861 94 -81 278 -214 295 -214 4 0 20 -9 35 -20 66 -47 300
-151 440 -197 67 -21 247 -64 325 -77 169 -28 560 -28 690 0 11 2 31 6 45 8
51 8 208 48 280 70 410 130 793 392 1060 726 112 140 248 367 315 525 45 107
115 331 131 422 32 179 38 248 39 428 0 193 -5 254 -30 402 -39 225 -122 464
-227 657 -21 38 -38 73 -38 77 0 5 -4 9 -10 9 -5 0 -10 5 -10 11 0 15 -120
188 -183 264 -293 355 -680 608 -1122 733 -73 21 -110 30 -158 37 -16 3 -32 7
-36 9 -4 3 -36 8 -72 11 -35 4 -75 9 -89 12 -30 6 -395 14 -401 9z"/>
</g>
</svg>
