<?xml version="1.0" standalone="no"?>
<!DOCTYPE svg PUBLIC "-//W3C//DTD SVG 20010904//EN"
 "http://www.w3.org/TR/2001/REC-SVG-20010904/DTD/svg10.dtd">
<svg version="1.0" xmlns="http://www.w3.org/2000/svg"
 width="500.000000pt" height="500.000000pt" viewBox="0 0 500.000000 500.000000"
 preserveAspectRatio="xMidYMid meet">
<metadata>
Created by potrace 1.11, written by Peter Selinger 2001-2013
</metadata>
<g transform="translate(0.000000,500.000000) scale(0.100000,-0.100000)"
fill="#000000" stroke="none">
<path d="M2250 4705 c-996 -112 -1793 -883 -1947 -1885 -24 -159 -24 -482 0
-640 98 -630 451 -1186 973 -1530 423 -279 932 -407 1430 -360 1019 98 1833
870 1991 1890 12 82 17 173 17 320 0 221 -14 353 -60 532 -136 540 -471 1015
-930 1318 -435 287 -957 413 -1474 355z m1490 -1181 c244 -186 350 -273 350
-286 0 -24 37 -3 -540 -297 -377 -191 -486 -250 -488 -266 -2 -16 56 -60 308
-229 170 -115 310 -215 310 -221 0 -7 -6 -17 -12 -23 -10 -8 -1676 -466 -2572
-707 -101 -27 -121 -25 -114 11 2 12 225 145 668 399 522 299 665 385 665 401
0 13 -62 63 -220 176 -170 121 -220 161 -220 178 0 17 159 139 750 576 413
305 754 554 758 554 4 0 165 -120 357 -266z"/>
</g>
</svg>
