<?xml version="1.0" standalone="no"?>
<!DOCTYPE svg PUBLIC "-//W3C//DTD SVG 20010904//EN"
 "http://www.w3.org/TR/2001/REC-SVG-20010904/DTD/svg10.dtd">
<svg version="1.0" xmlns="http://www.w3.org/2000/svg"
 width="1367.000000pt" height="1367.000000pt" viewBox="0 0 1367.000000 1367.000000"
 preserveAspectRatio="xMidYMid meet">
<metadata>
Created by potrace 1.11, written by Peter Selinger 2001-2013
</metadata>
<g transform="translate(0.000000,1367.000000) scale(0.100000,-0.100000)"
fill="#000000" stroke="none">
<path d="M6795 13506 c-27 -7 -73 -26 -101 -43 -27 -17 -70 -41 -95 -55 -24
-14 -100 -58 -169 -98 -69 -40 -141 -81 -160 -92 -19 -11 -76 -44 -127 -74
-51 -30 -96 -54 -102 -54 -5 0 -11 -3 -13 -8 -1 -4 -66 -43 -143 -87 -77 -43
-158 -91 -180 -106 -22 -14 -43 -27 -48 -28 -4 0 -17 -7 -30 -14 -70 -44 -128
-77 -132 -77 -2 0 -44 -24 -92 -53 -48 -29 -146 -87 -218 -128 -71 -40 -139
-79 -150 -86 -11 -7 -31 -17 -45 -23 -14 -6 -40 -23 -57 -36 -18 -14 -33 -23
-33 -20 0 3 -25 -10 -55 -29 -30 -19 -56 -35 -58 -35 -3 0 -45 -25 -96 -55
-50 -30 -110 -65 -133 -77 -24 -13 -74 -42 -113 -65 -38 -22 -173 -100 -300
-173 -126 -73 -243 -143 -260 -154 -16 -12 -32 -20 -35 -20 -3 1 -14 -4 -25
-11 -23 -15 -259 -151 -325 -188 -25 -14 -99 -57 -165 -96 -66 -38 -154 -89
-195 -112 -41 -23 -119 -68 -173 -100 -54 -33 -99 -59 -102 -59 -2 0 -39 -21
-82 -46 -43 -26 -91 -55 -108 -64 -136 -78 -513 -296 -609 -351 -65 -38 -122
-69 -127 -69 -5 0 -9 -4 -9 -9 0 -5 -9 -13 -20 -16 -11 -4 -78 -40 -148 -82
-70 -41 -147 -86 -172 -99 -41 -22 -87 -49 -162 -93 -14 -9 -73 -43 -130 -75
-113 -66 -190 -137 -210 -194 -10 -30 -14 -661 -16 -3232 -3 -3158 -2 -3340
27 -3340 4 0 14 -12 23 -27 37 -63 32 -59 358 -249 102 -59 201 -116 220 -127
19 -11 60 -34 90 -51 30 -16 56 -33 58 -38 2 -4 8 -8 13 -8 5 0 123 -66 261
-146 139 -81 270 -156 290 -168 100 -58 211 -122 226 -131 9 -6 53 -30 97 -54
44 -25 82 -48 83 -53 2 -4 7 -8 12 -8 7 0 382 -214 475 -271 17 -10 45 -25 62
-33 18 -8 38 -20 45 -26 7 -7 39 -26 70 -43 77 -43 237 -135 378 -217 63 -37
131 -77 150 -87 19 -11 112 -64 205 -118 94 -54 183 -106 200 -114 16 -9 32
-19 35 -22 3 -3 30 -19 60 -36 30 -16 167 -95 303 -174 137 -79 272 -157 300
-173 29 -15 54 -31 57 -35 3 -3 23 -15 45 -26 22 -10 64 -34 93 -52 29 -18 56
-33 61 -33 5 0 11 -3 13 -8 2 -4 24 -18 50 -32 68 -36 462 -263 468 -270 3 -3
14 -10 25 -16 55 -30 119 -66 210 -119 55 -32 119 -68 142 -81 23 -13 92 -53
153 -89 61 -36 115 -65 121 -65 5 0 9 -4 9 -9 0 -5 8 -11 18 -15 21 -7 70 -35
120 -69 58 -39 139 -53 220 -37 37 7 76 20 87 30 11 10 67 45 125 78 58 33
119 68 137 78 17 11 78 46 135 78 57 33 115 68 131 78 15 11 27 16 27 11 0 -4
4 -3 8 2 4 6 133 83 287 172 154 89 294 169 312 179 107 63 224 131 263 152
25 14 124 71 220 127 336 197 632 365 641 365 5 0 9 4 9 10 0 5 11 12 25 16
14 3 25 10 25 15 0 5 4 9 9 9 4 0 46 22 92 48 46 27 143 82 214 124 72 41 142
81 155 89 14 8 32 19 40 25 8 7 38 24 65 38 28 15 57 31 65 37 25 15 616 355
631 362 8 4 30 17 49 28 165 99 288 169 298 169 5 0 12 4 14 8 2 7 161 100
444 262 94 54 314 181 344 198 19 12 69 40 110 63 41 24 115 67 163 96 48 29
89 53 91 53 2 0 50 27 105 60 56 33 106 60 111 60 6 0 10 3 10 8 0 4 10 12 23
18 146 70 206 125 230 210 16 56 17 283 17 3270 0 3489 3 3273 -55 3350 -14
19 -53 51 -85 72 -65 41 -122 75 -130 77 -3 0 -59 32 -125 71 -66 39 -226 132
-355 206 -129 75 -249 144 -267 155 -17 10 -56 33 -87 51 -31 17 -60 32 -65
32 -5 0 -11 4 -13 8 -1 5 -39 29 -83 53 -44 25 -138 79 -210 121 -71 41 -188
109 -260 150 -71 41 -233 135 -360 208 -126 73 -282 162 -345 198 -63 37 -121
72 -128 79 -8 7 -18 11 -23 8 -5 -4 -9 -1 -9 4 0 6 -4 11 -9 11 -4 0 -82 43
-172 96 -90 53 -189 110 -219 127 -30 17 -134 76 -230 132 -96 56 -193 112
-215 124 -22 12 -58 33 -80 46 -22 14 -76 45 -120 70 -44 26 -95 55 -114 66
-19 11 -98 57 -175 101 -78 44 -149 88 -160 97 -10 9 -21 15 -25 15 -3 -1 -35
15 -71 36 -106 62 -914 529 -1001 578 -19 11 -101 58 -183 106 -82 47 -151 86
-153 86 -2 0 -17 9 -33 20 -17 11 -44 29 -61 41 -28 19 -125 50 -152 48 -7 0
-34 -6 -62 -13z"/>
</g>
</svg>
